<svg viewBox="0 0 20 20" xmlns="http://www.w3.org/2000/svg">

    <symbol id="d4" viewBox="5 0 64 74">
        <polygon points="36.421875,0.2080078 0.2910156,62.7871094 36.421875,41.8974609" />
        <polygon points="37.5771484,0.2094727 37.5771484,41.8984375 73.7089844,62.7871094" />
        <polygon points="36.9990234,42.8984375 0.8603516,63.7919922 73.1376953,63.7919922" />
    </symbol>

    <symbol id="d6" viewBox="0 0 64 64">
        <g>
            <rect x="6" y="6" width="52" height="52" rx="4" />
        </g>
    </symbol>

    <symbol id="d8" xmlns="http://www.w3.org/2000/svg" viewBox="40 40 100 100">
        <g>
            <g transform="translate(-242.40981,-473.89862)">
                <path d="M293.527,582.264l38.894-67.597l39.229,67.261L293.527,582.264z" />
                <path d="M291.304,581.946l-0.562-38.354l39.36-29.039L291.304,581.946z" />
                <path d="M373.477,581.529l0.6-37.685l-39.565-29.314L373.477,581.529z" />
                <path d="M332.421,613.268l-38.894-29.016l78.122-0.621L332.421,613.268z" />
            </g>
        </g>
    </symbol>

    <symbol id="d10" xmlns="http://www.w3.org/2000/svg" viewBox="40 40 100 100">
        <g>
            <g transform="matrix(1.1679092,0,0,1.1679092,-274.931,-137.53749)">
                <path d="M313.653,154.602l-26.488,55.612l24.356,15.89l26.354-15.928    L313.653,154.602z" />
                <path d="M314.9,153.687l24.49,55.919l14.175-4.584l0.915-22.612    L314.9,153.687z" />
                <path d="M312.359,227.393v8.568l40.76-28.762l-13.608,3.825    L312.359,227.393z" />
                <path d="M312.359,153.927l-26.756,55.732l-13.925-5.99l-1.229-22.679    L312.359,153.927z" />
                <path d="M310.517,227.213v8.75l-39.019-30.157l13.513,5.275    L310.517,227.213z" />
            </g>
        </g>
    </symbol>

    <symbol id="d12" xmlns="http://www.w3.org/2000/svg" viewBox="0 0 100 100">
        <path d="M34.449,72.826L23.851,41.064l26.853-21.056l27.455,21.056  l-10.2,32.344L34.449,72.826z" />
        <path d="M2.878,34.373L3.77,66.281l17.192,23.602l12.24-15.092  l-11.28-34.152L2.878,34.373z" />
        <path d="M67.664,75.568l-33.525-0.201L23.358,90.52l27.099,8.449  l27.684-8.83L67.664,75.568z" />
        <path d="M4.499,33.375L21.4,10.646l27.974-9.616v16.901L22.35,39.216  L4.499,33.375z" />
        <path d="M52.702,1.047l27.682,9.325l16.153,23.325l-17.028,5.967  l-27.1-21.423L52.702,1.047z" />
        <path d="M69.944,74.227l10.415-31.761l16.762-5.829l-0.076,28.558  L80.436,88.506L69.944,74.227z" />
    </symbol>

    <symbol id="d20" xmlns="http://www.w3.org/2000/svg" viewBox="0 0 280 320">
        <g transform="translate(-246.69456,-375.66745)">
            <path d="M379.93,375.668c-0.57,0.019-1.226,0.228-1.585,0.731l-80.673,96.527   c-1.342,1.681-1.433,2.056,0.366,2.073l161.59-0.427c2.221-0.182,2.23-0.07,0.792-1.951l-79.27-96.527   C380.986,375.84,380.501,375.654,379.93,375.668L379.93,375.668z M395.419,384.266l72.746,88.478   c0.974,1.182,1.212,1.249,2.927,0.427l38.354-17.562c2.513-1.134,2.165-1.366,0.487-2.5L395.419,384.266z M361.454,387.498   c-0.034-0.072-0.625,0.37-1.952,1.281L253.89,458.292l33.05,15.001c1.724,0.568,2.239,0.599,3.354-0.793l69.698-83.234   C360.973,388.129,361.487,387.57,361.454,387.498L361.454,387.498z M515.056,459.756c-0.328,0.023-0.846,0.212-1.646,0.548   l-39.392,17.989c-1.398,0.635-1.311,1.49-0.792,2.561l45.793,116.162l-3.292-135.309   C515.626,460.228,515.604,459.717,515.056,459.756L515.056,459.756z M250.902,463.354l-4.208,131.651l38.782-113.907   c0.573-1.682,0.559-1.767-0.61-2.317L250.902,463.354L250.902,463.354z M461.761,480.427l-165.249,0.427   c-2.361-0.035-2.264-0.033-1.098,1.89l83.905,141.529c1.417,2.159,1.265,2.092,2.744-0.121l80.612-141.772   C463.383,481.253,463.887,480.466,461.761,480.427L461.761,480.427z M468.347,484.147c-0.152,0.064-0.318,0.639-0.793,1.524   l-81.16,142.809c-0.887,1.508-1.097,2.048,1.036,1.708l128.845-17.744c2.044-0.467,1.982-1.197,1.281-3.232l-48.6-123.479   C468.635,484.55,468.5,484.083,468.347,484.147L468.347,484.147z M290.171,485.489c-0.158,0.113-0.3,0.715-0.609,1.585   l-41.16,121.162c-0.701,2.573-0.78,3.541,1.829,4.024l123.113,17.805c2.328,0.351,2.03-0.822,1.463-1.951l-83.783-141.345   C290.498,485.702,290.329,485.375,290.171,485.489L290.171,485.489z M258.158,619.334l120.796,68.538   c1.564,0.949,1.929,0.604,1.707-1.036l-2.561-48.05c-0.07-1.551-0.28-2.183-1.89-2.439L258.158,619.334L258.158,619.334z    M507.922,619.455l-122.625,16.952c-1.618,0.238-1.326,1.032-1.342,2.195l2.622,48.903c0.135,1.483,0.091,2.017,1.89,1.098   L507.922,619.455z" />
        </g>
    </symbol>

    <symbol id="d100" xmlns="http://www.w3.org/2000/svg" viewBox="40 40 100 100">
        <g transform="matrix(0.76131356,-0.33461635,0.33461635,0.76131356,-27.450108,46.699411)">
            <g transform="matrix(1.1679092,0,0,1.1679092,-257.41236,-137.53749)">
                <path d="m 313.653,154.602 -26.488,55.612 24.356,15.89 26.354,-15.928 z" />
                <path d="m 314.9,153.687 24.49,55.919 14.175,-4.584 0.915,-22.612 z" />
                <path d="m 312.359,227.393 v 8.568 l 40.76,-28.762 -13.608,3.825 z" />
                <path d="m 312.359,153.927 -26.756,55.732 -13.925,-5.99 -1.229,-22.679 z" />
                <path d="m 310.517,227.213 v 8.75 l -39.019,-30.157 13.513,5.275 z" />
            </g>
        </g>
        <g transform="matrix(0.79187267,0.14660965,-0.14660965,0.79187267,53.810151,18.896913)">
            <g transform="matrix(1.1679092,0,0,1.1679092,-292.44964,-137.53749)">
                <path d="m 313.653,154.602 -26.488,55.612 24.356,15.89 26.354,-15.928 z" />
                <path d="m 314.9,153.687 24.49,55.919 14.175,-4.584 0.915,-22.612 z" />
                <path d="m 312.359,227.393 v 8.568 l 40.76,-28.762 -13.608,3.825 z" />
                <path d="m 312.359,153.927 -26.756,55.732 -13.925,-5.99 -1.229,-22.679 z" />
                <path d="m 310.517,227.213 v 8.75 l -39.019,-30.157 13.513,5.275 z" />
            </g>
        </g>
    </symbol>
</svg>